<svg width="50" height="30" viewBox="0 0 50 30" fill="none" xmlns="http://www.w3.org/2000/svg">
<g clip-path="url(#clip0_802_221)">
<path d="M0 0H50V30H0V0Z" fill="#8A05BE"/>
<path d="M36.9089 17.3741C36.9089 17.8493 35.964 18.4334 35.1955 18.4334H34.4957C34.4965 15.5253 34.4965 12.2651 34.4957 11.6865C34.4954 11.6693 34.5008 11.6523 34.5114 11.6364C34.5221 11.6205 34.5379 11.6061 34.5579 11.5938C34.5779 11.5816 34.6017 11.5719 34.628 11.5652C34.6543 11.5585 34.6826 11.555 34.7111 11.5548H36.6925C36.8115 11.5548 36.909 11.6147 36.909 11.6875V17.3741H36.9089ZM33.6801 19.4539C33.6801 19.7547 33.4348 20.2585 31.7917 20.2585C28.6074 20.2585 26.6526 18.7617 26.6526 17.6881C26.6526 17.6881 26.6491 14.2169 26.6491 11.6876C26.6488 11.6704 26.6541 11.6534 26.6648 11.6374C26.6755 11.6215 26.6913 11.607 26.7114 11.5948C26.7314 11.5826 26.7553 11.5728 26.7817 11.5662C26.808 11.5595 26.8363 11.556 26.8649 11.5559H28.8487C28.9678 11.5559 29.0656 11.6155 29.0656 11.6887V17.266C29.0656 18.1876 30.2812 18.935 31.7796 18.935H33.6812L33.6801 19.4539ZM36.8429 11.0546H34.5604C34.0751 11.0546 33.6799 11.2978 33.6799 11.5962V18.434H31.7782C30.7291 18.434 29.8787 17.911 29.8787 17.2659V11.5962C29.8787 11.2971 29.484 11.0544 28.9978 11.0544H26.7143C26.2281 11.0544 25.8335 11.2971 25.8327 11.5962C25.8315 14.0684 25.8363 17.6883 25.8363 17.6883C25.8366 19.591 29.3046 20.7593 31.791 20.7593C33.4588 20.7593 34.4946 20.258 34.4946 19.4505V18.9349H35.1951C36.4238 18.9349 37.7234 18.1328 37.7234 17.3741V11.5962C37.7246 11.2971 37.33 11.0544 36.843 11.0544V11.0546H36.8429ZM23.3531 18.3124C23.3534 18.3296 23.348 18.3466 23.3373 18.3625C23.3266 18.3783 23.3108 18.3928 23.2908 18.405C23.2707 18.4172 23.2468 18.4269 23.2205 18.4336C23.1942 18.4402 23.1659 18.4437 23.1374 18.4438H21.1536C21.0329 18.4438 20.9362 18.3838 20.9367 18.3114V12.7339C20.9367 11.8125 19.7208 11.065 18.2227 11.065H16.321V10.546C16.321 10.2459 16.5663 9.74138 18.2094 9.74138C21.3938 9.74138 23.3491 11.2382 23.3491 12.3118C23.3491 12.3118 23.3527 15.7998 23.3527 18.3124H23.3531V18.3124ZM13.3076 18.445C13.1869 18.4428 13.0904 18.3845 13.0918 18.312V12.6264C13.0918 12.1512 14.0368 11.5663 14.805 11.5663H15.5054C15.5043 15.7308 15.5043 17.8617 15.5054 18.3118C15.5059 18.3466 15.4835 18.3801 15.443 18.4049C15.4025 18.4298 15.3472 18.444 15.2892 18.4445H13.3079L13.3076 18.445ZM24.1633 12.3118C24.1638 10.4089 20.6956 9.2406 18.2096 9.2406C16.5414 9.2406 15.5054 9.74183 15.5054 10.5495V11.065H14.8053C13.5762 11.065 12.2766 11.8671 12.2766 12.6258V18.4038C12.2766 18.7028 12.6712 18.9455 13.1572 18.9455H15.4393C15.4535 18.9455 15.4656 18.9432 15.4798 18.9432C15.9462 18.9297 16.3198 18.6941 16.3198 18.4038V11.5659H18.2218C19.2706 11.5659 20.1213 12.089 20.1213 12.734V18.4038C20.1213 18.7029 20.516 18.9456 21.0019 18.9456H23.2858C23.7721 18.9456 24.1665 18.7035 24.1665 18.4038C24.1682 15.8855 24.1637 12.3117 24.1637 12.3117L24.1633 12.3118Z" fill="white"/>
</g>
<defs>
<clipPath id="clip0_802_221">
<rect width="50" height="30" fill="white"/>
</clipPath>
</defs>
</svg>
